<svg xmlns="http://www.w3.org/2000/svg" viewBox="-1 0 33 33" preserveAspectRatio="none">
  <g>
    <defs>
      <path id="s-Path_3-d1224" d="M16.0 0.9899449201150787 C16.0 0.9899449201150787 16.012418365144317 -1.0 17.8416168227086 -1.0 C19.67081528027288 -1.0 19.75396066470762 0.9899449201150787 19.75396066470762 0.9899449201150787 L19.726245536149722 11.91246379116751 C19.726245536149722 11.91246379116751 19.643313333220828 13.547656351717393 17.841616822708595 13.547656351717393 C16.03992031219636 13.547656351717393 16.0 11.91246379116751 16.0 11.91246379116751 Z "></path>
    </defs>
    <g transform="rotate(45.0 17.87698033235381 6.2738281758586965)" style="mix-blend-mode:normal">
      <use xmlns:xlink="http://www.w3.org/1999/xlink" xlink:href="#s-Path_3-d1224" fill="#595959" fill-opacity="1.0"></use>
    </g>
  </g>
  <g>
    <defs>
      <path id="s-Path_4-d1224" d="M15.0 13.989944920115093 C15.0 13.989944920115093 15.012418365144315 12.0 16.8416168227086 12.0 C18.67081528027288 12.0 18.75396066470762 13.989944920115093 18.75396066470762 13.989944920115093 L18.726245536149722 33.72384905731417 C18.726245536149722 33.72384905731417 18.64331333322083 35.35904161786405 16.8416168227086 35.35904161786405 C15.039920312196363 35.35904161786405 15.0 33.72384905731417 15.0 33.72384905731417 Z "></path>
    </defs>
    <g transform="rotate(45.0 16.87698033235381 23.679520808932025)" style="mix-blend-mode:normal">
      <use xmlns:xlink="http://www.w3.org/1999/xlink" xlink:href="#s-Path_4-d1224" fill="#595959" fill-opacity="1.0"></use>
    </g>
  </g>
  <g>
    <defs>
      <path id="s-Path_7-d1224" d="M15.0 -0.01005507988492127 C15.0 -0.01005507988492127 15.012418365144315 -2.0 16.84161682270857 -2.0 C18.670815280272823 -2.0 18.753960664707563 -0.01005507988492127 18.753960664707563 -0.01005507988492127 L18.726245536149666 19.398346732065505 C18.726245536149666 19.398346732065505 18.643313333220778 21.033539292615387 16.84161682270857 21.033539292615387 C15.039920312196365 21.033539292615387 15.000000000000002 19.398346732065505 15.000000000000002 19.398346732065505 Z "></path>
    </defs>
    <g transform="rotate(315.0 16.87698033235378 9.516769646307694)" style="mix-blend-mode:normal">
      <use xmlns:xlink="http://www.w3.org/1999/xlink" xlink:href="#s-Path_7-d1224" fill="#595959" fill-opacity="1.0"></use>
    </g>
  </g>
  <g>
    <defs>
      <path id="s-Path_8-d1224" d="M15.999999999999998 20.989944920115093 C15.999999999999998 20.989944920115093 16.012418365144313 19.0 17.841616822708595 19.0 C19.670815280272876 19.0 19.75396066470762 20.989944920115093 19.75396066470762 20.989944920115093 L19.726245536149722 32.07670838730928 C19.726245536149722 32.07670838730928 19.64331333322083 33.711900947859164 17.8416168227086 33.711900947859164 C16.039920312196365 33.711900947859164 16.0 32.07670838730928 16.0 32.07670838730928 Z "></path>
    </defs>
    <g transform="rotate(315.0 17.87698033235381 26.355950473929582)" style="mix-blend-mode:normal">
      <use xmlns:xlink="http://www.w3.org/1999/xlink" xlink:href="#s-Path_8-d1224" fill="#595959" fill-opacity="1.0"></use>
    </g>
  </g>
  <g>
    <defs>
      <path id="s-Path_6-d1224" d="M25.000000000000004 14.989944920115086 C25.000000000000004 14.989944920115086 25.012418365144317 13.0 26.841616822708627 13.0 C28.670815280272933 13.0 28.753960664707677 14.989944920115086 28.753960664707677 14.989944920115086 L28.726245536149776 23.836881029337544 C28.726245536149776 23.836881029337544 28.643313333220885 25.472073589887426 26.841616822708623 25.472073589887426 C25.039920312196365 25.472073589887426 25.0 23.836881029337547 25.0 23.836881029337547 Z "></path>
    </defs>
    <g transform="rotate(315.0 26.87698033235384 19.236036794943715)" style="mix-blend-mode:normal">
      <use xmlns:xlink="http://www.w3.org/1999/xlink" xlink:href="#s-Path_6-d1224" fill="#FFFFFF" fill-opacity="1.0"></use>
    </g>
  </g>
  <g>
    <defs>
      <path id="s-Path_5-d1224" d="M25.000000000000004 8.989944920115093 C25.000000000000004 8.989944920115093 25.012418365144317 7.0 26.8416168227086 7.0 C28.67081528027288 7.0 28.75396066470762 8.989944920115093 28.75396066470762 8.989944920115093 L28.726245536149722 17.836881029337572 C28.726245536149722 17.836881029337572 28.64331333322083 19.472073589887458 26.8416168227086 19.472073589887458 C25.039920312196365 19.472073589887458 25.0 17.836881029337576 25.0 17.836881029337576 Z "></path>
    </defs>
    <g transform="rotate(45.0 26.87698033235381 13.236036794943729)" style="mix-blend-mode:normal">
      <use xmlns:xlink="http://www.w3.org/1999/xlink" xlink:href="#s-Path_5-d1224" fill="#FFFFFF" fill-opacity="1.0"></use>
    </g>
  </g>
  <g>
    <defs>
      <path id="s-Path_2-d1224" d="M6.0 7.989944920115093 C6.0 7.989944920115093 6.012418365144315 6.0 7.8416168227085965 6.0 C9.670815280272878 6.0 9.75396066470762 7.989944920115093 9.75396066470762 7.989944920115093 L9.726245536149722 25.345159448866355 C9.726245536149722 25.345159448866355 9.643313333220831 26.980352009416237 7.8416168227085965 26.980352009416237 C6.039920312196363 26.980352009416237 6.0 25.34515944886636 6.0 25.34515944886636 Z "></path>
    </defs>
    <g transform="rotate(45.0 7.87698033235381 16.49017600470812)" style="mix-blend-mode:normal">
      <use xmlns:xlink="http://www.w3.org/1999/xlink" xlink:href="#s-Path_2-d1224" fill="#FFFFFF" fill-opacity="1.0"></use>
    </g>
  </g>
  <g>
    <defs>
      <path id="s-Path_1-d1224" d="M6.0 7.989944920115086 C6.0 7.989944920115086 6.012418365144315 6.0 7.8416168227085965 6.0 C9.670815280272878 6.0 9.75396066470762 7.989944920115086 9.75396066470762 7.989944920115086 L9.726245536149722 25.345159448866347 C9.726245536149722 25.345159448866347 9.64331333322083 26.98035200941623 7.8416168227085965 26.98035200941623 C6.039920312196363 26.98035200941623 6.0 25.345159448866355 6.0 25.345159448866355 Z "></path>
    </defs>
    <g transform="rotate(315.0 7.87698033235381 16.490176004708115)" style="mix-blend-mode:normal">
      <use xmlns:xlink="http://www.w3.org/1999/xlink" xlink:href="#s-Path_1-d1224" fill="#FFFFFF" fill-opacity="1.0"></use>
    </g>
  </g>
</svg>

